<?xml version="1.0" standalone="no"?>
<!DOCTYPE svg PUBLIC "-//W3C//DTD SVG 20010904//EN"
 "http://www.w3.org/TR/2001/REC-SVG-20010904/DTD/svg10.dtd">
<svg version="1.0" xmlns="http://www.w3.org/2000/svg"
 width="943.000000pt" height="943.000000pt" viewBox="0 0 943.000000 943.000000"
 preserveAspectRatio="xMidYMid meet">
<metadata>
Created by potrace 1.14, written by Peter Selinger 2001-2017
</metadata>
<g transform="translate(0.000000,943.000000) scale(0.100000,-0.100000)"
fill="#000000" stroke="none">
<path d="M2419 8016 c-2 -2 -33 -7 -69 -10 -187 -19 -426 -108 -607 -228 -188
-124 -368 -328 -470 -533 -22 -44 -75 -168 -117 -275 -42 -107 -81 -204 -86
-215 -5 -11 -19 -45 -31 -75 -11 -30 -26 -68 -34 -85 -7 -16 -83 -208 -170
-425 -86 -217 -162 -408 -169 -425 -7 -16 -23 -55 -35 -86 -21 -53 -27 -59
-84 -87 -227 -112 -398 -301 -481 -532 -56 -154 -56 -166 -55 -1144 l0 -901
24 -68 c51 -149 141 -238 305 -303 39 -15 83 -18 310 -21 146 -1 277 -2 291
-3 25 0 27 -6 54 -107 102 -396 367 -727 730 -915 323 -167 721 -197 1079 -82
459 148 829 550 936 1019 l21 90 949 -1 c522 -1 957 -4 965 -8 9 -3 15 -11 13
-18 -7 -40 58 -238 119 -363 139 -281 386 -524 664 -654 191 -89 405 -137 604
-135 270 3 493 65 721 200 228 134 429 352 545 589 55 114 93 221 111 318 12
65 14 67 43 68 16 0 138 1 269 1 265 1 322 9 416 59 116 61 216 198 239 324
10 55 7 976 -4 1040 -17 101 -59 278 -87 360 -48 143 -176 394 -250 490 -252
325 -504 522 -843 658 -94 37 -283 90 -370 103 -27 5 -53 9 -57 10 -5 1 -12 2
-17 3 -5 0 -186 223 -402 494 -217 270 -396 494 -399 497 -3 3 -166 206 -362
452 -414 517 -465 573 -632 685 -170 114 -349 185 -581 229 -40 8 -2988 18
-2996 10z m885 -1640 c0 -386 -2 -703 -3 -706 -1 -6 -1651 -8 -1651 -3 0 3
183 462 251 628 7 17 13 35 15 40 3 12 120 301 133 330 5 11 19 47 32 80 12
33 37 83 55 111 33 52 121 144 138 144 5 0 17 6 25 13 20 17 90 45 133 52 18
3 34 7 35 9 2 2 191 3 421 3 l418 -1 -2 -700z m2026 685 c54 -16 146 -63 180
-94 29 -27 85 -89 120 -135 14 -18 33 -43 43 -55 10 -12 31 -37 45 -56 15 -18
69 -86 120 -150 52 -64 106 -131 120 -150 47 -59 173 -215 191 -236 9 -11 30
-38 46 -60 16 -22 32 -42 35 -45 4 -3 33 -39 65 -80 33 -41 62 -77 65 -80 3
-3 21 -25 40 -50 19 -25 40 -52 47 -60 37 -45 113 -142 113 -144 0 -1 -573 -2
-1274 -2 l-1274 0 0 700 c0 386 2 704 4 707 2 3 288 5 636 4 485 -1 644 -4
678 -14z m-2856 -3525 c219 -31 426 -185 525 -390 182 -378 -1 -825 -399 -973
-76 -29 -139 -38 -255 -36 -232 2 -451 124 -576 323 -69 110 -98 202 -106 335
-12 220 60 404 219 556 156 150 369 216 592 185z m4710 -1 c63 -8 174 -43 208
-67 14 -10 29 -18 33 -18 15 0 96 -63 145 -112 87 -87 149 -192 186 -313 25
-83 25 -275 1 -365 -63 -234 -237 -416 -469 -494 -67 -22 -102 -28 -188 -31
-196 -6 -359 54 -505 188 -230 210 -292 548 -151 831 101 205 302 350 534 385
50 8 127 6 206 -4z"/>
</g>
</svg>
